<svg width="100" height="100" viewBox="0 0 100 100" xmlns="http://www.w3.org/2000/svg">
  <!-- CareerFrame Logo Shield Pattern -->
  <defs>
    <pattern id="careerframe-shield" patternUnits="userSpaceOnUse" width="50" height="50">
      <!-- CareerFrame Shield Logo -->
      <g transform="translate(25, 25)">
        <!-- Shield outline -->
        <path d="M-12,-15 L12,-15 L12,5 L0,15 L-12,5 Z" 
              fill="none" 
              stroke="#88A98F" 
              stroke-width="1.5" 
              opacity="0.6"/>
        
        <!-- Inner shield -->
        <path d="M-10,-13 L10,-13 L10,3 L0,12 L-10,3 Z" 
              fill="none" 
              stroke="#88A98F" 
              stroke-width="1" 
              opacity="0.4"/>
        
        <!-- CF Letters -->
        <!-- Letter C -->
        <path d="M-8,-8 L-8,-3 L-8,2 L-5,2 L-5,0 L-7,0 L-7,-6 L-5,-6 L-5,-8 Z" 
              fill="#88A98F" 
              opacity="0.7"/>
        
        <!-- Letter F -->
        <path d="M-2,-8 L-2,2 L0,2 L0,0 L-0.5,0 L-0.5,-2 L2,-2 L2,-4 L-0.5,-4 L-0.5,-6 L2,-6 L2,-8 Z" 
              fill="#88A98F" 
              opacity="0.7"/>
      </g>
    </pattern>
  </defs>
  
  <!-- Apply the pattern -->
  <rect width="100%" height="100%" fill="url(#careerframe-shield)"/>
</svg>