<svg width="501" height="531" viewBox="0 0 501 531" fill="none" xmlns="http://www.w3.org/2000/svg">
<path d="M735.091 59.0774L262.279 -213.901C248.127 -222.072 230.034 -217.224 221.88 -203.102L3.5372 175.08C0.136993 180.969 -0.23065 188.157 2.58565 194.388L147.078 523.045C149.338 528.174 154.69 531.223 160.249 530.567L511.487 488.243C518.216 487.482 524.16 483.596 527.524 477.768L745.939 99.4634C754.092 85.3413 749.244 67.2486 735.091 59.0774ZM488.512 438.882L183.396 476.589L56.8026 189.634L256.204 -155.74L687.914 93.5081L488.512 438.882ZM572.778 150.371L597.736 107.141L314.925 -56.14C299.169 -65.2369 279.002 -59.8594 269.888 -44.0723L142.139 177.194L251.082 408.488L375.644 192.741L505.147 267.51L531.815 221.32L402.311 146.551L443.274 75.6019L572.778 150.371ZM254.159 303.537L197.804 180.471L304.582 -4.47218L400.137 50.6967L254.159 303.537Z" fill="#829340" fill-opacity="0.1"/>
</svg>
