<svg width="300" height="300" viewBox="0 0 300 300" xmlns="http://www.w3.org/2000/svg">
  <!-- Single CareerFrame Shield Logo -->
  <g transform="translate(150, 150)">
    <!-- Outer shield -->
    <path d="M-60,-75 L60,-75 L60,25 L0,75 L-60,25 Z" 
          fill="none" 
          stroke="#88A98F" 
          stroke-width="4" 
          opacity="0.8"/>
    
    <!-- Inner shield -->
    <path d="M-50,-65 L50,-65 L50,15 L0,60 L-50,15 Z" 
          fill="none" 
          stroke="#88A98F" 
          stroke-width="3" 
          opacity="0.6"/>
    
    <!-- CF Letters -->
    <!-- Letter C -->
    <path d="M-35,-35 L-35,-10 L-35,10 L-20,10 L-20,0 L-30,0 L-30,-25 L-20,-25 L-20,-35 Z" 
          fill="#88A98F" 
          opacity="0.9"/>
    
    <!-- Letter F -->
    <path d="M-5,-35 L-5,10 L5,10 L5,0 L0,0 L0,-10 L20,-10 L20,-20 L0,-20 L0,-25 L20,-25 L20,-35 Z" 
          fill="#88A98F" 
          opacity="0.9"/>
  </g>
</svg>