<svg width="750" height="750" viewBox="0 0 750 750" fill="none" xmlns="http://www.w3.org/2000/svg">
<path d="M734.573 277.772L261.761 4.79358C247.608 -3.3776 229.515 1.47033 221.362 15.5924L3.01865 393.774C-0.381557 399.663 -0.749198 406.851 2.0671 413.082L146.559 741.739C148.82 746.868 154.172 749.917 159.73 749.261L510.968 706.937C517.697 706.176 523.641 702.29 527.006 696.463L745.42 318.158C753.574 304.036 748.726 285.943 734.573 277.772ZM487.994 657.576L182.878 695.284L56.284 408.329L255.686 62.9545L687.396 312.202L487.994 657.576ZM572.259 369.065L597.218 325.835L314.406 162.554C298.65 153.457 278.484 158.835 269.369 174.622L141.621 395.888L250.563 627.182L375.125 411.435L504.629 486.204L531.296 440.015L401.793 365.246L442.755 294.296L572.259 369.065ZM253.641 522.231L197.286 399.166L304.063 214.222L399.618 269.391L253.641 522.231Z" fill="#829340" fill-opacity="0.1"/>
</svg>
