<svg width="300" height="300" viewBox="0 0 300 300" xmlns="http://www.w3.org/2000/svg">
  <!-- CareerFrame Shield Logo - Based on actual logo design -->
  <g transform="translate(150, 150)">
    <!-- Main shield outline with rounded corners -->
    <path d="M-50,-60 C-50,-65 -45,-70 -40,-70 L40,-70 C45,-70 50,-65 50,-60 L50,10 C50,15 45,20 40,20 L10,20 L0,50 L-10,20 L-40,20 C-45,20 -50,15 -50,10 Z" 
          fill="none" 
          stroke="#88A98F" 
          stroke-width="6" 
          opacity="1"/>
    
    <!-- Inner shield area -->
    <path d="M-40,-55 C-40,-58 -37,-60 -35,-60 L35,-60 C37,-60 40,-58 40,-55 L40,5 C40,8 37,10 35,10 L5,10 L0,35 L-5,10 L-35,10 C-37,10 -40,8 -40,5 Z" 
          fill="none" 
          stroke="#88A98F" 
          stroke-width="2" 
          opacity="0.6"/>
    
    <!-- Letter C -->
    <path d="M-30,-30 L-30,-10 L-30,5 L-15,5 L-15,-5 L-25,-5 L-25,-20 L-15,-20 L-15,-30 Z" 
          fill="#88A98F" 
          opacity="1"/>
    
    <!-- Letter F -->
    <path d="M-5,-30 L-5,5 L5,5 L5,-5 L0,-5 L0,-15 L15,-15 L15,-20 L0,-20 L0,-25 L15,-25 L15,-30 Z" 
          fill="#88A98F" 
          opacity="1"/>
  </g>
</svg>